<svg id="Layer_1" data-name="Layer 1" xmlns="http://www.w3.org/2000/svg" viewBox="0 0 231 151"><defs><style>.cls-1{fill:#ffe600;}.cls-2{font-size:24px;fill:#0726b6;font-family:GitanLatn-Rg, Gitan Latin;}</style></defs><path class="cls-1" d="M118,131.5H43c0-41.14,33.86-75,75-75s75,33.86,75,75Z"/><text class="cls-2" transform="translate(32.54 131.29) rotate(-84.31)">w</text><text class="cls-2" transform="translate(36.25 106.68) rotate(-68.88)">h</text><text class="cls-2" transform="matrix(0.57, -0.82, 0.82, 0.57, 44.66, 87.59)">y</text><text class="cls-2" transform="translate(56.53 72.22) rotate(-44.23)"> </text><text class="cls-2" transform="translate(66.52 63.02) rotate(-32.64)">h</text><text class="cls-2" transform="translate(84.56 52.58) rotate(-18.88)">e</text><text class="cls-2" transform="translate(103.77 47.13) rotate(-7.48)">l</text><text class="cls-2" transform="matrix(1, 0.03, -0.03, 1, 117.52, 45.95)">l</text><text class="cls-2" transform="translate(131.16 46.75) rotate(13.33)">o</text><text class="cls-2" transform="translate(151.13 52.64) rotate(25.01)"> </text><text class="cls-2" transform="translate(163.28 58.9) rotate(35.31)">t</text><text class="cls-2" transform="matrix(0.67, 0.74, -0.74, 0.67, 176.58, 69.05)">h</text><text class="cls-2" transform="translate(189.84 85.13) rotate(61.6)">e</text><text class="cls-2" transform="translate(198.45 103.08) rotate(74.08)">r</text><text class="cls-2" transform="translate(202.41 119.17) rotate(86.28)">e</text></svg>